<svg id="Layer_1" data-name="Layer 1" xmlns="http://www.w3.org/2000/svg" viewBox="0 0 1080 1080"><defs><style>.cls-1{fill:#7f5e21;}.cls-2{fill:#fcbb34;}.cls-3{fill:#fbba36;}.cls-4{fill:#d38f23;}.cls-5{fill:#fed44b;}</style></defs><title>env</title><path class="cls-1" d="M538.68,835.18H84.33c-13.24,0-14.19-.9-14.19-14.15q0-293.71,0-587.45c0-13,1.09-14.1,14.33-14.1q438.25,0,876.51.16c11.44,0,22.88-.62,34.32-.22,9.1.31,12.25,3.25,12.29,12.52.07,15,0,30,0,44.93q0,270.86,0,541.69c0,1.94-.07,3.88,0,5.82.19,7.67-3.43,10.92-11.17,10.87-30.79-.19-61.58-.08-92.37-.08ZM119.24,266l-.07-.05-1.71-1.46-.07-.06c-.85-2.07-2.76-1.91-4.49-2.12l-.14-.06-1.69-1.42,0,0-1.72-1.6-19.9-13.31c-6.29,0-3,5-3,7.13q-.31,268.7-.19,537.41c0,3.6-.07,7.22.19,10.81.15,2,1.31,2.13,2.57.57q18.15-20,36.3-40,42.09-46.5,84.15-93,73.45-81.44,146.82-163c12-13.35,23.68-27,35.51-40.53,2.86-1,3.84-3.82,5.71-5.77,8-8.27,7.93-8.38-1.45-14.49q-60.11-39.18-120.25-78.32Q202.47,319,129.21,271.07c-2.52-1.64-4.81-3.88-8.19-3.53h0Zm835.41,3-.08,0c-1.76.17-3.68,0-4.56,2.1l0,0c-2.89-.47-4.56,1.78-6.57,3.09-33.8,22.06-67.51,44.26-101.34,66.28q-78.2,50.9-156.49,101.63c-4.17,2.71-10.69,4.8-11.79,8.47-1.52,5.06,5.91,7.58,8.77,11.77,1.24,1.8,2,4,4.21,5,1.82,2.08,3.61,4.19,5.47,6.24q56.53,62.61,113.07,125.22Q896,699.51,986.75,800.14c1,1.07,1.6,3.19,4.38,1.74V793.1q0-216.71,0-433.42,0-53.67-.05-107.32c0-2.35,1.38-5.73-1.11-6.86s-4.8,1.64-7,3.22c-7,4.94-14.16,9.66-21.26,14.47-1-.13-1.47.34-1.55,1.3l-.1.14a4.28,4.28,0,0,0-3.63,2.86l0,.06C955.78,268.05,955.22,268.55,954.65,269ZM670.36,475.48c-.91-3.13-4.23-4.41-5.63-7-4.89-9-10.53-6.57-17.25-2.12-33.16,22-66.56,43.58-99.68,65.59-6.4,4.25-11.58,4.42-18.08.09C496.62,510,463.28,488.34,430,466.51c-10.32-6.77-12.5-6.34-19.4,4.15a27.45,27.45,0,0,0-1.93,4.51c-5,1.25-7.39,5.69-10.46,9.1Q327,563.32,255.88,642.51,183.52,722.81,111,803c-4.28,4.75-9.27,9.08-12.39,15H979.15c-1.11-1.6-1.61-2.54-2.3-3.31q-65.33-72.63-130.67-145.23-57.88-64.23-115.9-128.36C710.4,519.16,690.34,497.35,670.36,475.48Zm299-238.39H105.93c6.93,4.22,12.71,7.69,18.3,11.29Q220,310,315.34,372.26q108.41,70.39,216.75,140.9c4.78,3.12,8,3.47,13.07.17q76.46-50.18,153.26-99.81,99-64.31,198-128.61C920.5,269.24,944.5,253.41,969.4,237.09Z"/><path class="cls-2" d="M670.36,475.48c20,21.87,40,43.68,59.92,65.64q58,64.11,115.9,128.36Q911.58,742,976.85,814.71c.69.77,1.19,1.71,2.3,3.31H98.64c3.12-5.94,8.11-10.27,12.39-15q72.32-80.34,144.85-160.49,71.25-79.07,142.36-158.24c3.07-3.41,5.43-7.85,10.46-9.1,1,3.2,3.76,4.57,6.31,6.26,12.43,8.26,24.71,16.73,37.18,24.92,24.25,15.93,48.33,32.13,74.41,45.08,8.45,4.2,15.91,4.22,24.27,0,14.81-7.56,28.92-16.25,43.07-24.92Q633.14,502.43,670.36,475.48ZM804.21,796.73c23.69,2,47.94-2.2,72.32-1.52,3.52.1,7.09-1,10.59-1.66,4.06-.82,5.18-2.69,2.26-6.3-4.16-5.14-8.3-10.34-12.06-15.78a515,515,0,0,0-54.25-65.25C812.1,694.91,801.6,683,791.66,671c-14.19-17.07-29.38-33.26-44.15-49.69-13.68-15.22-28.21-29.93-42.69-44.53-13.3-13.41-25.78-27.63-39.52-40.7-5.87-5.58-10.95-5.47-16.92-2.74-18.53,8.48-36,18.88-53.86,28.71-13.52,7.46-27.23,14.68-41.36,20.85-5.68,2.48-12.14,4.92-19.16,2.61-23.93-7.87-43-24.19-64.2-36.76-15.14-9-29.92-18.59-45.46-26.9-4.84-2.59-9.75-1.56-14,1.7-12.36,9.38-22.77,20.84-33.75,31.69-15.36,15.18-30.3,30.76-45,46.61-15.47,16.68-31.84,32.52-47.56,49-12.2,12.78-24.24,25.72-35.84,39-3.64,4.19-7.92,7.64-11.53,11.82q-18.93,21.87-38.2,43.47C187.24,757.73,176.1,770.29,166.3,784c-1.36,1.9-2.62,3.66-1.71,6s3.12,1.86,5,2c27.58,1.63,55.22,1.6,82.82,3.13,31.5,1.76,63.07,0,94.67,1.5,45.35,2.2,90.84,1.19,136.26,1.55C590,799,696.79,800.34,804.21,796.73Z"/><path class="cls-2" d="M969.4,237.09c-24.9,16.32-48.9,32.15-73,47.82q-99,64.36-198,128.61-76.68,49.83-153.26,99.81c-5,3.3-8.29,2.95-13.07-.17q-108.25-70.62-216.75-140.9-95.5-62-191.11-123.88c-5.59-3.6-11.37-7.07-18.3-11.29ZM302.68,249.38H209.51c-10.26,0-20.52-.18-30.77.12-3.67.11-9.11-.06-10.14,3.45-.94,3.23,4.07,5.13,6.92,7.27,20.06,15,41.56,27.81,62.61,41.33,15.73,10.11,31.6,20.21,47.93,29,24,12.84,45.88,28.9,70.19,41.24,30.17,15.32,58.95,33.37,88.29,50.32,7.36,4.25,14.86,8.21,22.36,12.19,20.67,11,40.82,23,61.91,33.2a15.65,15.65,0,0,0,14.4.14c8.62-4.26,17.35-8.34,25.66-13.13,20.71-11.93,41.2-24.23,61.79-36.36,31.83-18.73,63.84-37.16,95.44-56.26,26.4-15.95,52.39-32.59,78.47-49.07,23.3-14.73,47.11-28.69,69.63-44.65,2-1.44,5.36-2.64,4.83-5.1-.78-3.7-4.65-1.45-7.11-2.05-2.68-.64-5.41-1.54-8.11-1.52-30.69.18-61.3-1.85-91.93-3.35C749,255,726,256.7,703,254.68c-22.27-2-44.74-.15-67.17-1.66-30.63-2.06-61.38-.16-92.13-1.58-43.4-2-86.92-.11-130.4-1.76C376.48,248.28,339.56,249.39,302.68,249.38Z"/><path class="cls-3" d="M961.66,263.19c7.1-4.81,14.26-9.53,21.26-14.47,2.23-1.58,4.4-4.41,7-3.22s1.11,4.51,1.11,6.86q.12,53.65.05,107.32,0,216.71,0,433.42v8.78c-2.78,1.45-3.41-.67-4.38-1.74Q896,699.54,805.31,598.89q-56.49-62.64-113.07-125.22c-1.86-2.05-3.65-4.16-5.47-6.24.58-6.32,6.58-6.84,10.4-9.61q36.45-26.44,73-52.72c23.48-16.91,47-33.71,70.45-50.69,30.11-21.83,60.39-43.44,90-66,6.76-5.14,16.09-8,19.36-17.25l0,0c1.79-.1,3.8.28,4.56-2.1h.08l1.69-1.5,0-.06c2.19.28,3.32-.77,3.63-2.86l.1-.14C960.62,264.05,961.14,263.62,961.66,263.19Zm6.48,203.25c-1.22-26.33,1-59.81-1.21-93.35-1.35-20.9-1.23-41.93-3.76-62.79-.6-4.92-2.08-7.09-7.51-4.43-11.66,5.7-22.63,12.53-33.85,19-22.89,13.1-43.72,29.09-65.59,43.58-20,13.23-38.79,28.2-58,42.53-19,14.14-37.43,29-54.57,45.38-4.74,4.54-5.74,9-1.83,14.5,4.48,6.26,8.19,13.18,13.34,18.81,17.71,19.38,32.35,41.2,49.68,61,14.32,16.33,28.64,32.83,42.6,49.56,15.89,19,33.05,37,50,55.05a644.34,644.34,0,0,0,48.73,47.07c3.19,2.74,7.53,6.4,11.88,4,3.27-1.79,3.12-6.76,3.4-10.54,1.75-23.36,3.89-46.71,4.86-70.11,1-23.21.46-46.45,1.54-69.7C969.12,528.55,968.14,501,968.14,466.44Z"/><path class="cls-2" d="M391.76,465.34c-11.83,13.52-23.51,27.18-35.51,40.53q-73.32,81.55-146.82,163-42,46.57-84.15,93-18.12,20-36.3,40c-3.79-10.15-1.08-20.68-1.1-30.91q-.61-251.54-.34-503.06c0-4.57-.47-9,8.28-9.55-8.07-3.18-10.75-6.7-6.41-12.4l19.9,13.31,1.72,1.6,0,0,1.69,1.42.14.07c.68,2.43,2.75,1.93,4.49,2.11l.08.06,1.7,1.46.06.05,1.74,1.49h0c.83,2.57,3,3.78,5,5.26q30,22,59.87,44.11c28.59,21.14,56.91,42.65,85.77,63.4C311.5,409,351.71,437,391.76,465.34ZM124.2,700.46c4.43-4.15,9-8.17,13.27-12.47,22.6-22.7,45-45.57,66.42-69.44C222.07,598.27,240.24,578,257.64,557c21.79-26.24,43.84-52.27,64-79.79,9.65-13.14,9.69-14.27-2.23-25.23a683.5,683.5,0,0,0-65.24-52.84c-8.74-6.24-16.49-14-25.59-19.57-15.47-9.5-30-20.4-44.92-30.63-17.94-12.31-36.53-23.43-55-34.85-3.93-2.44-7.5-5.38-12.22-6.69-9.49-2.64-10.85-1.58-12.36,8-4.4,27.66-4,55.69-4.39,83.43-.71,56.76-1.86,113.56.8,170.36,1.19,25.39,1,50.9,2.07,76.33a551.75,551.75,0,0,0,4.9,56.52c.82,5.61,3.45,6.88,8.35,5.05C122.76,710,123.15,704.83,124.2,700.46ZM93.49,570.15H91.86V775.83h1.63Zm0-292.95H91.86v99.15l1.64,0Z"/><path class="cls-4" d="M670.36,475.48q-37.22,27-76.42,51c-14.15,8.67-28.26,17.36-43.07,24.92-8.36,4.27-15.82,4.25-24.27,0-26.08-12.95-50.16-29.15-74.41-45.08-12.47-8.19-24.75-16.66-37.18-24.92-2.55-1.69-5.29-3.06-6.31-6.26a27.45,27.45,0,0,1,1.93-4.51c6.9-10.49,9.08-10.92,19.4-4.15,33.25,21.83,66.59,43.51,99.69,65.56,6.5,4.33,11.68,4.16,18.08-.09,33.12-22,66.52-43.63,99.68-65.59,6.72-4.45,12.36-6.91,17.25,2.12C666.13,471.07,669.45,472.35,670.36,475.48Z"/><path class="cls-4" d="M391.76,465.34C351.71,437,311.5,409,271.68,380.31c-28.86-20.75-57.18-42.26-85.77-63.4Q156,294.8,126,272.8c-2-1.48-4.2-2.69-5-5.26,3.39-.35,5.68,1.89,8.2,3.53q73.28,47.85,146.56,95.69Q335.86,406,396,445.08c9.38,6.11,9.42,6.22,1.45,14.49C395.6,461.52,394.62,464.38,391.76,465.34Z"/><path class="cls-4" d="M950,271.21c-3.27,9.24-12.6,12.11-19.36,17.25-29.6,22.51-59.88,44.12-90,66-23.42,17-47,33.78-70.45,50.69q-36.52,26.32-73,52.72c-3.82,2.77-9.82,3.29-10.4,9.61-2.23-1-3-3.18-4.21-5-2.86-4.19-10.29-6.71-8.77-11.77,1.1-3.67,7.62-5.76,11.79-8.47q78.24-50.82,156.49-101.63c33.83-22,67.54-44.22,101.34-66.28C945.42,273,947.09,270.74,950,271.21Z"/><path class="cls-3" d="M89.41,245.93c-4.34,5.7-1.66,9.22,6.41,12.4-8.75.54-8.28,5-8.28,9.55q.08,251.53.34,503.06c0,10.23-2.69,20.76,1.1,30.91-1.26,1.56-2.42,1.42-2.57-.57-.26-3.59-.19-7.21-.19-10.81q0-268.71.19-537.41C86.41,250.9,83.12,246,89.41,245.93Z"/><path class="cls-4" d="M117.39,264.47c-1.74-.18-3.81.32-4.49-2.11C114.63,262.56,116.54,262.4,117.39,264.47Z"/><path class="cls-4" d="M960,264.63c-.31,2.09-1.44,3.14-3.63,2.86A4.28,4.28,0,0,1,960,264.63Z"/><path class="cls-4" d="M954.57,269.06c-.76,2.38-2.77,2-4.56,2.1C950.89,269.07,952.81,269.23,954.57,269.06Z"/><path class="cls-4" d="M111,260.84l-1.72-1.6Z"/><path class="cls-4" d="M112.76,262.29l-1.69-1.42Z"/><path class="cls-4" d="M961.66,263.19c-.52.43-1,.86-1.55,1.3C960.19,263.53,960.67,263.06,961.66,263.19Z"/><path class="cls-4" d="M119.17,266l-1.7-1.46Z"/><path class="cls-4" d="M121,267.53,119.23,266Z"/><path class="cls-4" d="M956.34,267.55l-1.69,1.5Z"/><path class="cls-5" d="M804.21,796.73C696.79,800.34,590,799,483.33,798.15c-45.42-.36-90.91.65-136.26-1.55-31.6-1.54-63.17.26-94.67-1.5-27.6-1.53-55.24-1.5-82.82-3.13-1.87-.11-4.08.4-5-2s.35-4.13,1.71-6c9.8-13.68,20.94-26.24,32.12-38.77q19.28-21.59,38.2-43.47c3.61-4.18,7.89-7.63,11.53-11.82,11.6-13.32,23.64-26.26,35.84-39,15.72-16.46,32.09-32.3,47.56-49,14.69-15.85,29.63-31.43,45-46.61,11-10.85,21.39-22.31,33.75-31.69,4.3-3.26,9.21-4.29,14-1.7,15.54,8.31,30.32,17.92,45.46,26.9,21.19,12.57,40.27,28.89,64.2,36.76,7,2.31,13.48-.13,19.16-2.61,14.13-6.17,27.84-13.39,41.36-20.85,17.82-9.83,35.33-20.23,53.86-28.71,6-2.73,11-2.84,16.92,2.74,13.74,13.07,26.22,27.29,39.52,40.7,14.48,14.6,29,29.31,42.69,44.53,14.77,16.43,30,32.62,44.15,49.69,9.94,12,20.44,23.87,31.41,35.18a515,515,0,0,1,54.25,65.25c3.76,5.44,7.9,10.64,12.06,15.78,2.92,3.61,1.8,5.48-2.26,6.3-3.5.71-7.07,1.76-10.59,1.66C852.15,794.53,827.9,798.69,804.21,796.73Z"/><path class="cls-5" d="M302.68,249.38c36.88,0,73.8-1.1,110.63.3,43.48,1.65,87-.24,130.4,1.76,30.75,1.42,61.5-.48,92.13,1.58,22.43,1.51,44.9-.3,67.17,1.66,23,2,45.94.31,68.87,1.44,30.63,1.5,61.24,3.53,91.93,3.35,2.7,0,5.43.88,8.11,1.52,2.46.6,6.33-1.65,7.11,2.05.53,2.46-2.8,3.66-4.83,5.1-22.52,16-46.33,29.92-69.63,44.65-26.08,16.48-52.07,33.12-78.47,49.07-31.6,19.1-63.61,37.53-95.44,56.26-20.59,12.13-41.08,24.43-61.79,36.36-8.31,4.79-17,8.87-25.66,13.13a15.65,15.65,0,0,1-14.4-.14c-21.09-10.23-41.24-22.2-61.91-33.2-7.5-4-15-7.94-22.36-12.19-29.34-16.95-58.12-35-88.29-50.32-24.31-12.34-46.23-28.4-70.19-41.24-16.33-8.76-32.2-18.86-47.93-29-21-13.52-42.55-26.31-62.61-41.33-2.85-2.14-7.86-4-6.92-7.27,1-3.51,6.47-3.34,10.14-3.45,10.25-.3,20.51-.12,30.77-.12Z"/><path class="cls-5" d="M968.14,466.44c0,34.6,1,62.11-.29,89.51-1.08,23.25-.58,46.49-1.54,69.7-1,23.4-3.11,46.75-4.86,70.11-.28,3.78-.13,8.75-3.4,10.54-4.35,2.38-8.69-1.28-11.88-4a644.34,644.34,0,0,1-48.73-47.07c-17-18.07-34.14-36-50-55.05-14-16.73-28.28-33.23-42.6-49.56-17.33-19.77-32-41.59-49.68-61-5.15-5.63-8.86-12.55-13.34-18.81-3.91-5.46-2.91-10,1.83-14.5,17.14-16.4,35.57-31.24,54.57-45.38,19.24-14.33,38.06-29.3,58-42.53,21.87-14.49,42.7-30.48,65.59-43.58,11.22-6.43,22.19-13.26,33.85-19,5.43-2.66,6.91-.49,7.51,4.43,2.53,20.86,2.41,41.89,3.76,62.79C969.09,406.63,966.92,440.11,968.14,466.44Z"/><path class="cls-5" d="M115.87,707.11c-4.9,1.83-7.53.56-8.35-5.05a551.75,551.75,0,0,1-4.9-56.52c-1.09-25.43-.88-50.94-2.07-76.33-2.66-56.8-1.51-113.6-.8-170.36.34-27.74,0-55.77,4.39-83.43,1.51-9.56,2.87-10.62,12.36-8,4.72,1.31,8.29,4.25,12.22,6.69,18.45,11.42,37,22.54,55,34.85,14.92,10.23,29.45,21.13,44.92,30.63,9.1,5.59,16.85,13.33,25.59,19.57A683.5,683.5,0,0,1,319.45,452c11.92,11,11.88,12.09,2.23,25.23-20.2,27.52-42.25,53.55-64,79.79-17.4,21-35.57,41.23-53.75,61.51-21.41,23.87-43.82,46.74-66.42,69.44-4.28,4.3-8.84,8.32-13.27,12.47C121.45,702.7,117.72,703.72,115.87,707.11Z"/><path class="cls-3" d="M93.49,570.15V775.82H91.86V570.15Z"/><path class="cls-3" d="M93.5,277.2v99.14l-1.64,0V277.21Z"/><path class="cls-3" d="M115.87,707.11c1.85-3.39,5.58-4.41,8.33-6.65C123.15,704.83,122.76,710,115.87,707.11Z"/></svg>